<?xml version="1.0" encoding="UTF-8" standalone="no"?>
<!-- Created with Inkscape (http://www.inkscape.org/) -->

<svg
   version="1.1"
   id="svg9"
   width="840.96008"
   height="131.21721"
   viewBox="0 0 840.96009 131.21721"
   sodipodi:docname="logo_red.svg.2024_06_10_19_00_24.0.svg"
   inkscape:export-filename="logo_red.svg"
   inkscape:export-xdpi="16.305246"
   inkscape:export-ydpi="16.305246"
   xmlns:inkscape="http://www.inkscape.org/namespaces/inkscape"
   xmlns:sodipodi="http://sodipodi.sourceforge.net/DTD/sodipodi-0.dtd"
   xmlns="http://www.w3.org/2000/svg"
   xmlns:svg="http://www.w3.org/2000/svg">
  <defs
     id="defs13" />
  <sodipodi:namedview
     id="namedview11"
     pagecolor="#ffffff"
     bordercolor="#666666"
     borderopacity="1.0"
     inkscape:showpageshadow="2"
     inkscape:pageopacity="0.0"
     inkscape:pagecheckerboard="0"
     inkscape:deskcolor="#d1d1d1"
     showgrid="false" />
  <g
     inkscape:groupmode="layer"
     inkscape:label="Image"
     id="g15"
     transform="translate(233.08081,184.68911)">
    <g
       aria-label="INFUSED."
       id="text459"
       style="font-size:193.333px;line-height:1.25;fill:#ef233c"
       transform="translate(-6)">
      <path
         d="m -227.08081,-182.70668 h 86.4712 v 21.5234 h -29.35867 v 84.299979 h 29.35867 v 21.5234 h -86.4712 v -21.5234 h 29.35867 v -84.299979 h -29.35867 z"
         style="font-weight:bold;font-family:'Liberation Mono';-inkscape-font-specification:'Liberation Mono Bold'"
         id="path1209" />
      <path
         d="M -55.271217,-55.359901 -91.52115,-150.70479 q 2.643221,23.78903 2.643221,33.41791 v 61.926979 H -113.13895 V -182.70668 h 31.813091 l 37.099544,97.893705 q -2.643224,-22.184205 -2.643224,-34.456315 v -63.43739 h 24.261025 v 127.346779 z"
         style="font-weight:bold;font-family:'Liberation Mono';-inkscape-font-specification:'Liberation Mono Bold'"
         id="path1211" />
      <path
         d="m 33.748809,-161.18328 v 36.24993 h 58.622944 v 21.5234 H 33.748809 v 48.050049 H 5.900551 V -182.70668 h 88.642422 v 21.5234 z"
         style="font-weight:bold;font-family:'Liberation Mono';-inkscape-font-specification:'Liberation Mono Bold'"
         id="path1213" />
      <path
         d="m 162.70041,-53.471884 q -23.22262,0 -33.79552,-12.649717 -10.5729,-12.649717 -10.5729,-39.081959 v -77.50312 h 27.84826 v 77.21991 q 0,16.520157 3.77604,23.411421 3.87043,6.796863 13.49932,6.796863 9.81769,0 14.25454,-7.268868 4.43684,-7.268867 4.43684,-23.883416 v -76.27591 h 27.84825 v 76.0871 q 0,26.998654 -11.7057,40.120375 -11.61131,13.027321 -35.58913,13.027321 z"
         style="font-weight:bold;font-family:'Liberation Mono';-inkscape-font-specification:'Liberation Mono Bold'"
         id="path1215" />
      <path
         d="m 332.14998,-92.270644 q 0,18.124968 -13.87693,28.509065 -13.78253,10.289695 -38.42116,10.289695 -22.1842,0 -36.15553,-9.345687 -13.97133,-9.345686 -17.93617,-27.187452 l 26.90425,-3.492832 q 2.17122,8.873682 9.06249,14.06573 6.89126,5.097648 18.88017,5.097648 12.46092,0 18.40817,-3.964837 6.04166,-3.964837 6.04166,-12.366515 0,-6.230461 -5.28645,-10.478501 -5.28645,-4.34244 -15.38734,-6.79686 -20.29619,-4.90884 -28.69787,-8.49608 -8.30728,-3.68163 -13.31052,-8.21287 -5.00325,-4.53125 -7.74088,-10.5729 -2.64322,-6.13606 -2.64322,-13.68813 0,-16.52015 13.21612,-26.14904 13.31053,-9.62889 35.02273,-9.62889 21.14579,0 33.0403,8.40168 11.89451,8.30727 15.38735,25.86584 l -26.99865,2.73762 q -4.15364,-17.27536 -21.99541,-17.27536 -10.00649,0 -15.29294,3.77604 -5.28645,3.68163 -5.28645,10.6673 0,4.62564 2.54882,7.74087 2.54883,3.02083 6.89127,5.19205 4.43684,2.07682 17.93616,5.56965 17.74737,4.34244 27.28186,9.72329 9.53449,5.28645 13.97133,12.83852 4.43684,7.55207 4.43684,17.180956 z"
         style="font-weight:bold;font-family:'Liberation Mono';-inkscape-font-specification:'Liberation Mono Bold'"
         id="path1217" />
      <path
         d="M 351.12456,-55.359901 V -182.70668 h 91.38004 v 21.5234 h -63.53179 v 30.58588 h 57.77334 v 21.5234 h -57.77334 v 32.190699 h 67.40223 v 21.5234 z"
         style="font-weight:bold;font-family:'Liberation Mono';-inkscape-font-specification:'Liberation Mono Bold'"
         id="path1219" />
      <path
         d="m 562.67692,-120.0245 q 0,31.152288 -14.53774,47.955644 -14.53773,16.708955 -41.44198,16.708955 H 466.95443 V -182.70668 h 34.07872 q 30.96348,0 46.25642,15.57614 15.38735,15.48175 15.38735,47.10604 z m -28.03706,0 q 0,-21.429 -8.11848,-31.24669 -8.02407,-9.91209 -25.96024,-9.91209 h -5.75845 v 84.299979 h 9.62889 q 30.20828,0 30.20828,-43.141199 z"
         style="font-weight:bold;font-family:'Liberation Mono';-inkscape-font-specification:'Liberation Mono Bold'"
         id="path1221" />
      <path
         d="m 586.5974,-55.359901 v -28.792267 h 27.28185 v 28.792267 z"
         style="font-weight:bold;font-family:'Liberation Mono';-inkscape-font-specification:'Liberation Mono Bold'"
         id="path1223" />
    </g>
  </g>
</svg>
